<svg width="19" height="19" viewBox="0 0 19 19" fill="none" xmlns="http://www.w3.org/2000/svg">
<g clip-path="url(#clip0_2481_432)">
<path d="M9.95618 13.6837C9.09588 13.6861 8.39791 14.3856 8.40025 15.2426C8.4026 16.1 9.10439 16.7959 9.96469 16.7936C10.8253 16.7912 11.5232 16.0914 11.5209 15.2341C11.5186 14.3771 10.8166 13.6814 9.95618 13.6837Z" fill="#383B58"/>
<path d="M13.7567 11.5551C12.7382 10.5427 11.3846 9.98703 9.94576 9.99096C8.5125 9.99489 7.16564 10.5542 6.15294 11.5658C5.74392 11.9751 5.74503 12.64 6.15529 13.0478C6.35458 13.2463 6.6195 13.3548 6.90116 13.3541C7.18154 13.3533 7.44487 13.2438 7.64279 13.046C8.25908 12.4301 9.07899 12.0896 9.9515 12.0872C10.8273 12.0848 11.6513 12.423 12.2714 13.0391C12.4707 13.237 12.7355 13.3459 13.0168 13.3451C13.2975 13.3444 13.5607 13.2349 13.7588 13.037C14.1683 12.6277 14.1672 11.9631 13.7567 11.5551Z" fill="#383B58"/>
<path d="M18.6332 6.66791C16.3046 4.35773 13.2124 3.09078 9.92678 3.09977C6.64557 3.10875 3.56346 4.38962 1.24825 6.707C0.839231 7.11627 0.840767 7.78123 1.25174 8.18897C1.45089 8.38646 1.71538 8.49463 1.99647 8.49386C2.27741 8.49309 2.54103 8.38391 2.73909 8.18546C4.65817 6.26482 7.21277 5.20274 9.93251 5.1953C12.6562 5.18785 15.2192 6.23805 17.1492 8.15327C17.3483 8.35091 17.6132 8.4595 17.8942 8.45873C18.175 8.45796 18.4386 8.34821 18.6365 8.15005C19.0457 7.74046 19.0443 7.07525 18.6332 6.66791Z" fill="#383B58"/>
<path d="M16.1334 9.17279C14.4758 7.52812 12.2752 6.62599 9.93672 6.63239C7.60255 6.63878 5.41012 7.55009 3.76301 9.19798C3.56466 9.39628 3.45593 9.65964 3.45627 9.93974C3.45703 10.2195 3.56678 10.4826 3.76593 10.6801C3.96508 10.8777 4.22972 10.9863 4.51081 10.9855C4.79147 10.9848 5.05508 10.875 5.25343 10.6772C6.5047 9.42543 8.17004 8.73319 9.94246 8.72834C11.7186 8.72348 13.39 9.409 14.6489 10.6581C14.8483 10.856 15.1128 10.9646 15.3941 10.9639C15.6749 10.9631 15.9386 10.8533 16.1364 10.6552C16.3345 10.4569 16.4435 10.1935 16.4429 9.91343C16.4424 9.63333 16.3324 9.37057 16.1334 9.17279Z" fill="#383B58"/>
</g>
<defs>
<clipPath id="clip0_2481_432">
<rect width="18" height="18" fill="white" transform="translate(0.924805 0.971313) rotate(-0.156794)"/>
</clipPath>
</defs>
</svg>
