<svg width="41" height="41" viewBox="0 0 41 41" fill="none" xmlns="http://www.w3.org/2000/svg">
<g filter="url(#filter0_ddd_823_8992)">
<circle cx="20.5" cy="19.5" r="17.5" fill="#F0572D"/>
</g>
<path d="M18.1762 12.0003C17.9469 11.9954 17.7218 12.0596 17.532 12.1842C17.3423 12.3088 17.1974 12.4875 17.1176 12.6954C17.0377 12.9033 17.0268 13.13 17.0864 13.3441C17.1459 13.5583 17.273 13.749 17.45 13.8901L24.2014 19.4827L17.45 25.0734C17.3276 25.1604 17.2251 25.2708 17.1489 25.3979C17.0727 25.525 17.0244 25.6659 17.0072 25.8119C16.9899 25.9578 17.004 26.1056 17.0485 26.246C17.0931 26.3864 17.1671 26.5165 17.266 26.628C17.365 26.7394 17.4866 26.8298 17.6234 26.8937C17.7602 26.9577 17.9091 26.9935 18.0609 26.9992C18.2127 27.0049 18.3641 26.9802 18.5055 26.9267C18.647 26.8732 18.7755 26.792 18.883 26.6882L26.6128 20.2933C26.7342 20.1931 26.8317 20.0688 26.8985 19.9287C26.9654 19.7886 27 19.6361 27 19.4818C27 19.3275 26.9654 19.175 26.8985 19.0348C26.8317 18.8947 26.7342 18.7703 26.6128 18.6701L18.883 12.269C18.6877 12.1013 18.4373 12.0062 18.1762 12.0003Z" fill="white"/>
<defs>
<filter id="filter0_ddd_823_8992" x="0" y="0" width="41" height="41" filterUnits="userSpaceOnUse" color-interpolation-filters="sRGB">
<feFlood flood-opacity="0" result="BackgroundImageFix"/>
<feColorMatrix in="SourceAlpha" type="matrix" values="0 0 0 0 0 0 0 0 0 0 0 0 0 0 0 0 0 0 127 0" result="hardAlpha"/>
<feOffset dy="1"/>
<feGaussianBlur stdDeviation="1.5"/>
<feColorMatrix type="matrix" values="0 0 0 0 0 0 0 0 0 0 0 0 0 0 0 0 0 0 0.2 0"/>
<feBlend mode="normal" in2="BackgroundImageFix" result="effect1_dropShadow_823_8992"/>
<feColorMatrix in="SourceAlpha" type="matrix" values="0 0 0 0 0 0 0 0 0 0 0 0 0 0 0 0 0 0 127 0" result="hardAlpha"/>
<feOffset dy="2"/>
<feGaussianBlur stdDeviation="0.5"/>
<feColorMatrix type="matrix" values="0 0 0 0 0 0 0 0 0 0 0 0 0 0 0 0 0 0 0.12 0"/>
<feBlend mode="normal" in2="effect1_dropShadow_823_8992" result="effect2_dropShadow_823_8992"/>
<feColorMatrix in="SourceAlpha" type="matrix" values="0 0 0 0 0 0 0 0 0 0 0 0 0 0 0 0 0 0 127 0" result="hardAlpha"/>
<feOffset dy="1"/>
<feGaussianBlur stdDeviation="0.5"/>
<feColorMatrix type="matrix" values="0 0 0 0 0 0 0 0 0 0 0 0 0 0 0 0 0 0 0.14 0"/>
<feBlend mode="normal" in2="effect2_dropShadow_823_8992" result="effect3_dropShadow_823_8992"/>
<feBlend mode="normal" in="SourceGraphic" in2="effect3_dropShadow_823_8992" result="shape"/>
</filter>
</defs>
</svg>
