<svg width="138" height="23" viewBox="0 0 138 23" fill="none" xmlns="http://www.w3.org/2000/svg">
<path d="M97.5651 7.22607C97.5781 7.43104 97.5781 7.63605 97.5781 7.84101C97.5781 14.0928 93.3621 21.2963 85.6565 21.2963C83.2825 21.2963 81.0772 20.5203 79.2222 19.1733C79.5595 19.2172 79.8837 19.2319 80.234 19.2319C82.1928 19.2319 83.996 18.4852 85.4359 17.2114C83.5939 17.1675 82.0501 15.8058 81.5183 13.9318C81.7777 13.9757 82.0372 14.0049 82.3096 14.0049C82.6858 14.0049 83.062 13.9464 83.4123 13.8439C81.4923 13.4046 80.0524 11.5013 80.0524 9.20264V9.1441C80.6102 9.49549 81.2588 9.7151 81.9463 9.74435C80.8177 8.89514 80.0783 7.44568 80.0783 5.80586C80.0783 4.9274 80.2858 4.12213 80.6491 3.41935C82.7117 6.28903 85.8121 8.16307 89.2887 8.36808C89.2239 8.01669 89.1849 7.6507 89.1849 7.28466C89.1849 4.67849 91.053 2.55554 93.375 2.55554C94.5814 2.55554 95.6711 3.12655 96.4365 4.04894C97.3835 3.84398 98.2915 3.44865 99.0958 2.90693C98.7845 4.00505 98.1229 4.92745 97.2538 5.51305C98.097 5.41061 98.9142 5.14701 99.6666 4.78102C99.0959 5.71802 98.3824 6.55253 97.5651 7.22607V7.22607Z" fill="#191B1D"/>
<path d="M24.7037 11.57C24.7037 5.1785 19.3658 0 12.7777 0C6.18962 0 0.851807 5.1785 0.851807 11.57C0.851807 17.3447 5.21294 22.1313 10.9143 23V14.9145H7.88474V11.57H10.9143V9.02085C10.9143 6.12136 12.6936 4.51976 15.4187 4.51976C16.7239 4.51976 18.0886 4.74556 18.0886 4.74556V7.5914H16.5844C15.1033 7.5914 14.6412 8.48341 14.6412 9.39828V11.57H17.9487L17.4197 14.9145H14.6412V23C20.3425 22.1313 24.7037 17.3447 24.7037 11.57Z" fill="#191B1D"/>
<path d="M46.317 22.1482H42.0784V8.49847H46.317V22.1482ZM44.1954 6.63652C42.8401 6.63652 41.7407 5.51388 41.7407 4.15849C41.7407 3.50745 41.9993 2.88307 42.4597 2.42272C42.92 1.96236 43.5444 1.70374 44.1954 1.70374C44.8465 1.70374 45.4708 1.96236 45.9312 2.42272C46.3915 2.88307 46.6501 3.50745 46.6501 4.15849C46.6501 5.51388 45.5503 6.63652 44.1954 6.63652ZM62.1806 22.1482H57.9512V15.5036C57.9512 13.92 57.9192 11.8892 55.7474 11.8892C53.5437 11.8892 53.206 13.6097 53.206 15.3895V22.1482H48.972V8.49847H53.0372V10.3604H53.0965C53.6624 9.28797 55.0447 8.1562 57.1069 8.1562C61.3966 8.1562 62.1852 10.9811 62.1852 14.6502V22.1482H62.1806Z" fill="#191B1D"/>
<path d="M127.354 6.68426C124.333 6.68426 121.895 9.02455 121.895 11.926C121.895 14.8274 124.333 17.1677 127.354 17.1677C130.376 17.1677 132.813 14.8274 132.813 11.926C132.813 9.02455 130.376 6.68426 127.354 6.68426ZM127.354 15.3337C125.401 15.3337 123.805 13.8055 123.805 11.926C123.805 10.0464 125.397 8.51817 127.354 8.51817C129.312 8.51817 130.903 10.0464 130.903 11.926C130.903 13.8055 129.307 15.3337 127.354 15.3337V15.3337ZM134.31 6.46985C134.31 7.14958 133.739 7.69246 133.036 7.69246C132.328 7.69246 131.763 7.14502 131.763 6.46985C131.763 5.79468 132.333 5.24724 133.036 5.24724C133.739 5.24724 134.31 5.79468 134.31 6.46985ZM137.925 7.7107C137.844 6.07296 137.455 4.62225 136.205 3.42702C134.96 2.23178 133.45 1.8577 131.744 1.77559C129.986 1.67979 124.717 1.67979 122.959 1.77559C121.259 1.85314 119.748 2.22722 118.498 3.42246C117.249 4.61769 116.864 6.06839 116.778 7.70614C116.679 9.39407 116.679 14.4533 116.778 16.1412C116.859 17.779 117.249 19.2297 118.498 20.4249C119.748 21.6201 121.254 21.9942 122.959 22.0763C124.717 22.1721 129.986 22.1721 131.744 22.0763C133.45 21.9988 134.96 21.6247 136.205 20.4249C137.45 19.2297 137.84 17.779 137.925 16.1412C138.025 14.4533 138.025 9.39863 137.925 7.7107V7.7107ZM135.654 17.9523C135.284 18.8465 134.566 19.5353 133.63 19.8957C132.229 20.4295 128.903 20.3063 127.354 20.3063C125.805 20.3063 122.475 20.4249 121.078 19.8957C120.147 19.5399 119.429 18.851 119.054 17.9523C118.498 16.6065 118.627 13.4132 118.627 11.926C118.627 10.4388 118.503 7.24082 119.054 5.8996C119.425 5.00546 120.142 4.3166 121.078 3.95621C122.48 3.42246 125.805 3.54563 127.354 3.54563C128.903 3.54563 132.233 3.42702 133.63 3.95621C134.561 4.31204 135.279 5.0009 135.654 5.8996C136.21 7.24538 136.082 10.4388 136.082 11.926C136.082 13.4132 136.21 16.6111 135.654 17.9523Z" fill="#191B1D"/>
</svg>
